<mxfile host="Electron" modified="2024-11-12T08:20:02.240Z" agent="Mozilla/5.0 (Windows NT 10.0; Win64; x64) AppleWebKit/537.36 (KHTML, like Gecko) draw.io/21.1.2 Chrome/106.0.5249.199 Electron/21.4.3 Safari/537.36" etag="vP6LLL2lWE_WYkGFhCVn" version="21.1.2" type="device">
  <diagram name="Side-1" id="9WmEyEX1VREWEknSR-mM">
    <mxGraphModel dx="1418" dy="820" grid="1" gridSize="10" guides="1" tooltips="1" connect="1" arrows="1" fold="1" page="1" pageScale="1" pageWidth="1169" pageHeight="1654" math="0" shadow="0">
      <root>
        <mxCell id="0" />
        <mxCell id="1" parent="0" />
        <mxCell id="ub6ad2O6LqSQvnMJv5L3-2" value="&lt;div style=&quot;&quot;&gt;&lt;span style=&quot;background-color: initial;&quot;&gt;&lt;font style=&quot;font-size: 15px;&quot;&gt;User interface&lt;/font&gt;&lt;/span&gt;&lt;/div&gt;&lt;div style=&quot;&quot;&gt;&lt;span style=&quot;background-color: initial;&quot;&gt;&lt;font style=&quot;font-size: 15px;&quot;&gt;Subnode&lt;/font&gt;&lt;/span&gt;&lt;/div&gt;" style="rounded=0;whiteSpace=wrap;html=1;align=center;" parent="1" vertex="1">
          <mxGeometry x="350" y="450" width="120" height="80" as="geometry" />
        </mxCell>
        <mxCell id="ub6ad2O6LqSQvnMJv5L3-3" value="&lt;font style=&quot;font-size: 15px;&quot;&gt;Microcontroller&lt;br&gt;Main&lt;br&gt;&lt;/font&gt;" style="rounded=0;whiteSpace=wrap;html=1;" parent="1" vertex="1">
          <mxGeometry x="610" y="450" width="120" height="80" as="geometry" />
        </mxCell>
        <mxCell id="ub6ad2O6LqSQvnMJv5L3-5" value="CS" style="endArrow=classic;html=1;rounded=0;exitX=0;exitY=0.167;exitDx=0;exitDy=0;exitPerimeter=0;entryX=1;entryY=0.167;entryDx=0;entryDy=0;entryPerimeter=0;" parent="1" source="ub6ad2O6LqSQvnMJv5L3-3" target="ub6ad2O6LqSQvnMJv5L3-2" edge="1">
          <mxGeometry width="50" height="50" relative="1" as="geometry">
            <mxPoint x="520" y="550" as="sourcePoint" />
            <mxPoint x="570" y="500" as="targetPoint" />
          </mxGeometry>
        </mxCell>
        <mxCell id="ub6ad2O6LqSQvnMJv5L3-8" value="SCK" style="endArrow=classic;startArrow=classic;html=1;rounded=0;exitX=1;exitY=0.5;exitDx=0;exitDy=0;entryX=0;entryY=0.5;entryDx=0;entryDy=0;" parent="1" edge="1">
          <mxGeometry width="50" height="50" relative="1" as="geometry">
            <mxPoint x="470" y="480" as="sourcePoint" />
            <mxPoint x="610" y="480" as="targetPoint" />
          </mxGeometry>
        </mxCell>
        <mxCell id="ub6ad2O6LqSQvnMJv5L3-10" value="MOSI" style="endArrow=classic;html=1;rounded=0;exitX=0;exitY=0.167;exitDx=0;exitDy=0;exitPerimeter=0;entryX=1;entryY=0.167;entryDx=0;entryDy=0;entryPerimeter=0;" parent="1" edge="1">
          <mxGeometry width="50" height="50" relative="1" as="geometry">
            <mxPoint x="610" y="502" as="sourcePoint" />
            <mxPoint x="470" y="502" as="targetPoint" />
          </mxGeometry>
        </mxCell>
        <mxCell id="ub6ad2O6LqSQvnMJv5L3-11" value="MISO" style="endArrow=classic;html=1;rounded=0;exitX=0;exitY=0.167;exitDx=0;exitDy=0;exitPerimeter=0;entryX=1;entryY=0.167;entryDx=0;entryDy=0;entryPerimeter=0;" parent="1" edge="1">
          <mxGeometry width="50" height="50" relative="1" as="geometry">
            <mxPoint x="470" y="519" as="sourcePoint" />
            <mxPoint x="610" y="519" as="targetPoint" />
          </mxGeometry>
        </mxCell>
        <mxCell id="ub6ad2O6LqSQvnMJv5L3-13" value="" style="endArrow=none;html=1;rounded=0;" parent="1" edge="1">
          <mxGeometry width="50" height="50" relative="1" as="geometry">
            <mxPoint x="535" y="458" as="sourcePoint" />
            <mxPoint x="544" y="458" as="targetPoint" />
          </mxGeometry>
        </mxCell>
        <mxCell id="ub6ad2O6LqSQvnMJv5L3-14" value="" style="endArrow=classic;html=1;rounded=0;" parent="1" edge="1">
          <mxGeometry width="50" height="50" relative="1" as="geometry">
            <mxPoint x="410" y="400" as="sourcePoint" />
            <mxPoint x="409.8" y="450" as="targetPoint" />
          </mxGeometry>
        </mxCell>
        <mxCell id="ub6ad2O6LqSQvnMJv5L3-16" value="" style="endArrow=none;dashed=1;html=1;rounded=0;" parent="1" edge="1">
          <mxGeometry width="50" height="50" relative="1" as="geometry">
            <mxPoint x="470" y="492" as="sourcePoint" />
            <mxPoint x="470" y="392" as="targetPoint" />
            <Array as="points">
              <mxPoint x="470" y="482" />
            </Array>
          </mxGeometry>
        </mxCell>
        <mxCell id="ub6ad2O6LqSQvnMJv5L3-17" value="" style="endArrow=none;dashed=1;html=1;rounded=0;entryX=0;entryY=1;entryDx=0;entryDy=0;" parent="1" edge="1">
          <mxGeometry width="50" height="50" relative="1" as="geometry">
            <mxPoint x="310" y="573" as="sourcePoint" />
            <mxPoint x="467" y="573" as="targetPoint" />
            <Array as="points">
              <mxPoint x="437" y="573" />
            </Array>
          </mxGeometry>
        </mxCell>
        <mxCell id="ub6ad2O6LqSQvnMJv5L3-18" value="" style="endArrow=none;dashed=1;html=1;rounded=0;" parent="1" edge="1">
          <mxGeometry width="50" height="50" relative="1" as="geometry">
            <mxPoint x="470" y="574" as="sourcePoint" />
            <mxPoint x="470" y="474" as="targetPoint" />
            <Array as="points">
              <mxPoint x="470" y="564" />
            </Array>
          </mxGeometry>
        </mxCell>
      </root>
    </mxGraphModel>
  </diagram>
</mxfile>
